<?xml version="1.0" encoding="UTF-8"?>
<svg width="88px" height="62px" viewBox="0 0 88 62" version="1.1" xmlns="http://www.w3.org/2000/svg" xmlns:xlink="http://www.w3.org/1999/xlink">
    <title>Group 2</title>
    <g id="Page-1" stroke="none" stroke-width="1" fill="none" fill-rule="evenodd">
        <g id="Group-2" transform="translate(0.154000, 0.600000)" fill="#000000" fill-rule="nonzero">
            <g id="Derdinand-Loof" transform="translate(0.000000, 19.000000)">
                <path d="M0.264,15.4 C0.190666667,15.4 0.128333333,15.3743333 0.077,15.323 C0.0256666667,15.2716667 0,15.2093333 0,15.136 L0,0.264 C0,0.190666667 0.0256666667,0.128333333 0.077,0.077 C0.128333333,0.0256666667 0.190666667,0 0.264,0 L4.246,0 C5.58066667,0 6.65133333,0.388666667 7.458,1.166 C8.26466667,1.94333333 8.668,2.97733333 8.668,4.268 L8.668,11.132 C8.668,12.4226667 8.26466667,13.4566667 7.458,14.234 C6.65133333,15.0113333 5.58066667,15.4 4.246,15.4 L0.264,15.4 Z M3.102,12.628 C3.102,12.7013333 3.13866667,12.738 3.212,12.738 L4.202,12.716 C4.598,12.7013333 4.92066667,12.5326667 5.17,12.21 C5.41933333,11.8873333 5.55133333,11.462 5.566,10.934 L5.566,4.466 C5.566,3.90866667 5.44133333,3.46866667 5.192,3.146 C4.94266667,2.82333333 4.60533333,2.662 4.18,2.662 L3.212,2.662 C3.13866667,2.662 3.102,2.69866667 3.102,2.772 L3.102,12.628 Z" id="Shape"></path>
                <path d="M18.48,2.398 C18.48,2.47133333 18.4543333,2.53366667 18.403,2.585 C18.3516667,2.63633333 18.2893333,2.662 18.216,2.662 L13.618,2.662 C13.5446667,2.662 13.508,2.69866667 13.508,2.772 L13.508,6.248 C13.508,6.32133333 13.5446667,6.358 13.618,6.358 L16.258,6.358 C16.3313333,6.358 16.3936667,6.38366667 16.445,6.435 C16.4963333,6.48633333 16.522,6.54866667 16.522,6.622 L16.522,8.756 C16.522,8.82933333 16.4963333,8.89166667 16.445,8.943 C16.3936667,8.99433333 16.3313333,9.02 16.258,9.02 L13.618,9.02 C13.5446667,9.02 13.508,9.05666667 13.508,9.13 L13.508,12.628 C13.508,12.7013333 13.5446667,12.738 13.618,12.738 L18.216,12.738 C18.2893333,12.738 18.3516667,12.7636667 18.403,12.815 C18.4543333,12.8663333 18.48,12.9286667 18.48,13.002 L18.48,15.136 C18.48,15.2093333 18.4543333,15.2716667 18.403,15.323 C18.3516667,15.3743333 18.2893333,15.4 18.216,15.4 L10.67,15.4 C10.5966667,15.4 10.5343333,15.3743333 10.483,15.323 C10.4316667,15.2716667 10.406,15.2093333 10.406,15.136 L10.406,0.264 C10.406,0.190666667 10.4316667,0.128333333 10.483,0.077 C10.5343333,0.0256666667 10.5966667,0 10.67,0 L18.216,0 C18.2893333,0 18.3516667,0.0256666667 18.403,0.077 C18.4543333,0.128333333 18.48,0.190666667 18.48,0.264 L18.48,2.398 Z" id="Path"></path>
                <path d="M26.114,15.4 C25.9526667,15.4 25.85,15.3266667 25.806,15.18 L24.112,9.108 C24.0826667,9.04933333 24.046,9.02 24.002,9.02 L23.254,9.02 C23.1806667,9.02 23.144,9.05666667 23.144,9.13 L23.144,15.136 C23.144,15.2093333 23.1183333,15.2716667 23.067,15.323 C23.0156667,15.3743333 22.9533333,15.4 22.88,15.4 L20.306,15.4 C20.2326667,15.4 20.1703333,15.3743333 20.119,15.323 C20.0676667,15.2716667 20.042,15.2093333 20.042,15.136 L20.042,0.264 C20.042,0.190666667 20.0676667,0.128333333 20.119,0.077 C20.1703333,0.0256666667 20.2326667,0 20.306,0 L24.75,0 C25.5566667,0 26.2753333,0.194333333 26.906,0.583 C27.5366667,0.971666667 28.0243333,1.518 28.369,2.222 C28.7136667,2.926 28.886,3.73266667 28.886,4.642 C28.886,5.50733333 28.721,6.27 28.391,6.93 C28.061,7.59 27.6026667,8.10333333 27.016,8.47 C26.9866667,8.48466667 26.9646667,8.503 26.95,8.525 C26.9353333,8.547 26.9353333,8.57266667 26.95,8.602 L28.974,15.092 L28.996,15.18 C28.996,15.3266667 28.9153333,15.4 28.754,15.4 L26.114,15.4 Z M23.254,2.662 C23.1806667,2.662 23.144,2.69866667 23.144,2.772 L23.144,6.534 C23.144,6.60733333 23.1806667,6.644 23.254,6.644 L24.244,6.644 C24.6986667,6.644 25.069,6.46433333 25.355,6.105 C25.641,5.74566667 25.784,5.26533333 25.784,4.664 C25.784,4.048 25.641,3.56033333 25.355,3.201 C25.069,2.84166667 24.6986667,2.662 24.244,2.662 L23.254,2.662 Z" id="Shape"></path>
                <path d="M30.668,15.4 C30.5946667,15.4 30.5323333,15.3743333 30.481,15.323 C30.4296667,15.2716667 30.404,15.2093333 30.404,15.136 L30.404,0.264 C30.404,0.190666667 30.4296667,0.128333333 30.481,0.077 C30.5323333,0.0256666667 30.5946667,0 30.668,0 L34.65,0 C35.9846667,0 37.0553333,0.388666667 37.862,1.166 C38.6686667,1.94333333 39.072,2.97733333 39.072,4.268 L39.072,11.132 C39.072,12.4226667 38.6686667,13.4566667 37.862,14.234 C37.0553333,15.0113333 35.9846667,15.4 34.65,15.4 L30.668,15.4 Z M33.506,12.628 C33.506,12.7013333 33.5426667,12.738 33.616,12.738 L34.606,12.716 C35.002,12.7013333 35.3246667,12.5326667 35.574,12.21 C35.8233333,11.8873333 35.9553333,11.462 35.97,10.934 L35.97,4.466 C35.97,3.90866667 35.8453333,3.46866667 35.596,3.146 C35.3466667,2.82333333 35.0093333,2.662 34.584,2.662 L33.616,2.662 C33.5426667,2.662 33.506,2.69866667 33.506,2.772 L33.506,12.628 Z" id="Shape"></path>
                <path d="M41.14,15.4 C41.0666667,15.4 41.0043333,15.3743333 40.953,15.323 C40.9016667,15.2716667 40.876,15.2093333 40.876,15.136 L40.876,0.264 C40.876,0.190666667 40.9016667,0.128333333 40.953,0.077 C41.0043333,0.0256666667 41.0666667,0 41.14,0 L43.714,0 C43.7873333,0 43.8496667,0.0256666667 43.901,0.077 C43.9523333,0.128333333 43.978,0.190666667 43.978,0.264 L43.978,15.136 C43.978,15.2093333 43.9523333,15.2716667 43.901,15.323 C43.8496667,15.3743333 43.7873333,15.4 43.714,15.4 L41.14,15.4 Z" id="Path"></path>
                <path d="M52.228,0.264 C52.228,0.190666667 52.2536667,0.128333333 52.305,0.077 C52.3563333,0.0256666667 52.4186667,0 52.492,0 L55.044,0 C55.1173333,0 55.1796667,0.0256666667 55.231,0.077 C55.2823333,0.128333333 55.308,0.190666667 55.308,0.264 L55.308,15.136 C55.308,15.2093333 55.2823333,15.2716667 55.231,15.323 C55.1796667,15.3743333 55.1173333,15.4 55.044,15.4 L52.14,15.4 C51.9933333,15.4 51.898,15.3266667 51.854,15.18 L49.126,6.666 C49.1113333,6.622 49.0856667,6.60366667 49.049,6.611 C49.0123333,6.61833333 48.994,6.644 48.994,6.688 L49.016,15.136 C49.016,15.2093333 48.9903333,15.2716667 48.939,15.323 C48.8876667,15.3743333 48.8253333,15.4 48.752,15.4 L46.2,15.4 C46.1266667,15.4 46.0643333,15.3743333 46.013,15.323 C45.9616667,15.2716667 45.936,15.2093333 45.936,15.136 L45.936,0.264 C45.936,0.190666667 45.9616667,0.128333333 46.013,0.077 C46.0643333,0.0256666667 46.1266667,0 46.2,0 L49.082,0 C49.2286667,0 49.324,0.0733333333 49.368,0.22 L52.118,8.734 C52.1326667,8.778 52.1583333,8.79633333 52.195,8.789 C52.2316667,8.78166667 52.25,8.756 52.25,8.712 L52.228,0.264 Z" id="Path"></path>
                <path d="M63.712,15.4 C63.536,15.4 63.4406667,15.3193333 63.426,15.158 L63.074,13.046 C63.074,12.9726667 63.03,12.936 62.942,12.936 L60.148,12.936 C60.06,12.936 60.016,12.9726667 60.016,13.046 L59.664,15.158 C59.6493333,15.3193333 59.554,15.4 59.378,15.4 L56.804,15.4 C56.6133333,15.4 56.54,15.3046667 56.584,15.114 L59.818,0.242 C59.8473333,0.0806666667 59.9426667,0 60.104,0 L63.074,0 C63.2353333,0 63.3306667,0.0806666667 63.36,0.242 L66.572,15.114 L66.594,15.202 C66.594,15.334 66.5133333,15.4 66.352,15.4 L63.712,15.4 Z M60.456,10.428 C60.456,10.5013333 60.4853333,10.538 60.544,10.538 L62.524,10.538 C62.5973333,10.538 62.6266667,10.5013333 62.612,10.428 L61.578,4.422 C61.5633333,4.378 61.5413333,4.356 61.512,4.356 C61.4826667,4.356 61.4606667,4.378 61.446,4.422 L60.456,10.428 Z" id="Shape"></path>
                <path d="M74.14,0.264 C74.14,0.190666667 74.1656667,0.128333333 74.217,0.077 C74.2683333,0.0256666667 74.3306667,0 74.404,0 L76.956,0 C77.0293333,0 77.0916667,0.0256666667 77.143,0.077 C77.1943333,0.128333333 77.22,0.190666667 77.22,0.264 L77.22,15.136 C77.22,15.2093333 77.1943333,15.2716667 77.143,15.323 C77.0916667,15.3743333 77.0293333,15.4 76.956,15.4 L74.052,15.4 C73.9053333,15.4 73.81,15.3266667 73.766,15.18 L71.038,6.666 C71.0233333,6.622 70.9976667,6.60366667 70.961,6.611 C70.9243333,6.61833333 70.906,6.644 70.906,6.688 L70.928,15.136 C70.928,15.2093333 70.9023333,15.2716667 70.851,15.323 C70.7996667,15.3743333 70.7373333,15.4 70.664,15.4 L68.112,15.4 C68.0386667,15.4 67.9763333,15.3743333 67.925,15.323 C67.8736667,15.2716667 67.848,15.2093333 67.848,15.136 L67.848,0.264 C67.848,0.190666667 67.8736667,0.128333333 67.925,0.077 C67.9763333,0.0256666667 68.0386667,0 68.112,0 L70.994,0 C71.1406667,0 71.236,0.0733333333 71.28,0.22 L74.03,8.734 C74.0446667,8.778 74.0703333,8.79633333 74.107,8.789 C74.1436667,8.78166667 74.162,8.756 74.162,8.712 L74.14,0.264 Z" id="Path"></path>
                <path d="M79.42,15.4 C79.3466667,15.4 79.2843333,15.3743333 79.233,15.323 C79.1816667,15.2716667 79.156,15.2093333 79.156,15.136 L79.156,0.264 C79.156,0.190666667 79.1816667,0.128333333 79.233,0.077 C79.2843333,0.0256666667 79.3466667,0 79.42,0 L83.402,0 C84.7366667,0 85.8073333,0.388666667 86.614,1.166 C87.4206667,1.94333333 87.824,2.97733333 87.824,4.268 L87.824,11.132 C87.824,12.4226667 87.4206667,13.4566667 86.614,14.234 C85.8073333,15.0113333 84.7366667,15.4 83.402,15.4 L79.42,15.4 Z M82.258,12.628 C82.258,12.7013333 82.2946667,12.738 82.368,12.738 L83.358,12.716 C83.754,12.7013333 84.0766667,12.5326667 84.326,12.21 C84.5753333,11.8873333 84.7073333,11.462 84.722,10.934 L84.722,4.466 C84.722,3.90866667 84.5973333,3.46866667 84.348,3.146 C84.0986667,2.82333333 83.7613333,2.662 83.336,2.662 L82.368,2.662 C82.2946667,2.662 82.258,2.69866667 82.258,2.772 L82.258,12.628 Z" id="Shape"></path>
                <path d="M25.399,41.4 C25.3256667,41.4 25.2633333,41.3743333 25.212,41.323 C25.1606667,41.2716667 25.135,41.2093333 25.135,41.136 L25.135,26.264 C25.135,26.1906667 25.1606667,26.1283333 25.212,26.077 C25.2633333,26.0256667 25.3256667,26 25.399,26 L27.973,26 C28.0463333,26 28.1086667,26.0256667 28.16,26.077 C28.2113333,26.1283333 28.237,26.1906667 28.237,26.264 L28.237,38.628 C28.237,38.7013333 28.2736667,38.738 28.347,38.738 L32.967,38.738 C33.0403333,38.738 33.1026667,38.7636667 33.154,38.815 C33.2053333,38.8663333 33.231,38.9286667 33.231,39.002 L33.231,41.136 C33.231,41.2093333 33.2053333,41.2716667 33.154,41.323 C33.1026667,41.3743333 33.0403333,41.4 32.967,41.4 L25.399,41.4 Z" id="Path"></path>
                <path d="M38.643,41.576 C37.2936667,41.576 36.2156667,41.18 35.409,40.388 C34.6023333,39.596 34.199,38.54 34.199,37.22 L34.199,30.18 C34.199,28.86 34.6023333,27.804 35.409,27.012 C36.2156667,26.22 37.2936667,25.824 38.643,25.824 C39.9923333,25.824 41.074,26.22 41.888,27.012 C42.702,27.804 43.109,28.86 43.109,30.18 L43.109,37.22 C43.109,38.54 42.702,39.596 41.888,40.388 C41.074,41.18 39.9923333,41.576 38.643,41.576 Z M38.643,38.914 C39.0536667,38.914 39.3836667,38.771 39.633,38.485 C39.8823333,38.199 40.007,37.8213333 40.007,37.352 L40.007,30.048 C40.007,29.5786667 39.8823333,29.201 39.633,28.915 C39.3836667,28.629 39.0536667,28.486 38.643,28.486 C38.2323333,28.486 37.906,28.629 37.664,28.915 C37.422,29.201 37.301,29.5786667 37.301,30.048 L37.301,37.352 C37.301,37.8213333 37.422,38.199 37.664,38.485 C37.906,38.771 38.2323333,38.914 38.643,38.914 Z" id="Shape"></path>
                <path d="M49.049,41.576 C47.6996667,41.576 46.6216667,41.18 45.815,40.388 C45.0083333,39.596 44.605,38.54 44.605,37.22 L44.605,30.18 C44.605,28.86 45.0083333,27.804 45.815,27.012 C46.6216667,26.22 47.6996667,25.824 49.049,25.824 C50.3983333,25.824 51.48,26.22 52.294,27.012 C53.108,27.804 53.515,28.86 53.515,30.18 L53.515,37.22 C53.515,38.54 53.108,39.596 52.294,40.388 C51.48,41.18 50.3983333,41.576 49.049,41.576 Z M49.049,38.914 C49.4596667,38.914 49.7896667,38.771 50.039,38.485 C50.2883333,38.199 50.413,37.8213333 50.413,37.352 L50.413,30.048 C50.413,29.5786667 50.2883333,29.201 50.039,28.915 C49.7896667,28.629 49.4596667,28.486 49.049,28.486 C48.6383333,28.486 48.312,28.629 48.07,28.915 C47.828,29.201 47.707,29.5786667 47.707,30.048 L47.707,37.352 C47.707,37.8213333 47.828,38.199 48.07,38.485 C48.312,38.771 48.6383333,38.914 49.049,38.914 Z" id="Shape"></path>
                <path d="M63.283,28.398 C63.283,28.4713333 63.2573333,28.5336667 63.206,28.585 C63.1546667,28.6363333 63.0923333,28.662 63.019,28.662 L58.443,28.662 C58.3696667,28.662 58.333,28.6986667 58.333,28.772 L58.333,32.248 C58.333,32.3213333 58.3696667,32.358 58.443,32.358 L61.061,32.358 C61.1343333,32.358 61.1966667,32.3836667 61.248,32.435 C61.2993333,32.4863333 61.325,32.5486667 61.325,32.622 L61.325,34.756 C61.325,34.8293333 61.2993333,34.8916667 61.248,34.943 C61.1966667,34.9943333 61.1343333,35.02 61.061,35.02 L58.443,35.02 C58.3696667,35.02 58.333,35.0566667 58.333,35.13 L58.333,41.136 C58.333,41.2093333 58.3073333,41.2716667 58.256,41.323 C58.2046667,41.3743333 58.1423333,41.4 58.069,41.4 L55.495,41.4 C55.4216667,41.4 55.3593333,41.3743333 55.308,41.323 C55.2566667,41.2716667 55.231,41.2093333 55.231,41.136 L55.231,26.264 C55.231,26.1906667 55.2566667,26.1283333 55.308,26.077 C55.3593333,26.0256667 55.4216667,26 55.495,26 L63.019,26 C63.0923333,26 63.1546667,26.0256667 63.206,26.077 C63.2573333,26.1283333 63.283,26.1906667 63.283,26.264 L63.283,28.398 Z" id="Path"></path>
            </g>
            <g id="Hosted-By" transform="translate(22.822000, 0.000000)">
                <path d="M3.012,0.144 C3.012,0.104 3.026,0.07 3.054,0.042 C3.082,0.014 3.116,0 3.156,0 L4.56,0 C4.6,0 4.634,0.014 4.662,0.042 C4.69,0.07 4.704,0.104 4.704,0.144 L4.704,8.256 C4.704,8.296 4.69,8.33 4.662,8.358 C4.634,8.386 4.6,8.4 4.56,8.4 L3.156,8.4 C3.116,8.4 3.082,8.386 3.054,8.358 C3.026,8.33 3.012,8.296 3.012,8.256 L3.012,4.98 C3.012,4.94 2.992,4.92 2.952,4.92 L1.752,4.92 C1.712,4.92 1.692,4.94 1.692,4.98 L1.692,8.256 C1.692,8.296 1.678,8.33 1.65,8.358 C1.622,8.386 1.588,8.4 1.548,8.4 L0.144,8.4 C0.104,8.4 0.07,8.386 0.042,8.358 C0.014,8.33 0,8.296 0,8.256 L0,0.144 C0,0.104 0.014,0.07 0.042,0.042 C0.07,0.014 0.104,0 0.144,0 L1.548,0 C1.588,0 1.622,0.014 1.65,0.042 C1.678,0.07 1.692,0.104 1.692,0.144 L1.692,3.408 C1.692,3.448 1.712,3.468 1.752,3.468 L2.952,3.468 C2.992,3.468 3.012,3.448 3.012,3.408 L3.012,0.144 Z" id="Path"></path>
                <path d="M7.884,8.496 C7.172,8.496 6.614,8.316 6.21,7.956 C5.806,7.596 5.604,7.104 5.604,6.48 L5.604,4.152 C5.604,3.544 5.808,3.056 6.216,2.688 C6.624,2.32 7.18,2.136 7.884,2.136 C8.596,2.136 9.156,2.32 9.564,2.688 C9.972,3.056 10.176,3.544 10.176,4.152 L10.176,6.48 C10.176,7.104 9.974,7.596 9.57,7.956 C9.166,8.316 8.604,8.496 7.884,8.496 Z M7.884,7.032 C8.06,7.032 8.204,6.968 8.316,6.84 C8.428,6.712 8.484,6.548 8.484,6.348 L8.484,4.272 C8.484,4.072 8.428,3.908 8.316,3.78 C8.204,3.652 8.06,3.588 7.884,3.588 C7.708,3.588 7.566,3.652 7.458,3.78 C7.35,3.908 7.296,4.072 7.296,4.272 L7.296,6.348 C7.296,6.548 7.35,6.712 7.458,6.84 C7.566,6.968 7.708,7.032 7.884,7.032 Z" id="Shape"></path>
                <path d="M13.056,8.484 C12.376,8.484 11.834,8.322 11.43,7.998 C11.026,7.674 10.824,7.24 10.824,6.696 L10.824,6.612 C10.824,6.572 10.838,6.538 10.866,6.51 C10.894,6.482 10.928,6.468 10.968,6.468 L12.288,6.468 C12.328,6.468 12.362,6.482 12.39,6.51 C12.418,6.538 12.432,6.572 12.432,6.612 L12.432,6.648 C12.432,6.816 12.492,6.954 12.612,7.062 C12.732,7.17 12.88,7.224 13.056,7.224 C13.216,7.224 13.342,7.178 13.434,7.086 C13.526,6.994 13.572,6.876 13.572,6.732 C13.572,6.556 13.496,6.418 13.344,6.318 C13.192,6.218 13.022,6.134 12.834,6.066 C12.646,5.998 12.516,5.952 12.444,5.928 C12.004,5.768 11.634,5.546 11.334,5.262 C11.034,4.978 10.884,4.568 10.884,4.032 C10.884,3.448 11.076,2.988 11.46,2.652 C11.844,2.316 12.356,2.148 12.996,2.148 C13.66,2.148 14.186,2.324 14.574,2.676 C14.962,3.028 15.156,3.504 15.156,4.104 C15.156,4.144 15.142,4.178 15.114,4.206 C15.086,4.234 15.052,4.248 15.012,4.248 L13.728,4.248 C13.688,4.248 13.654,4.234 13.626,4.206 C13.598,4.178 13.584,4.144 13.584,4.104 L13.584,4.008 C13.584,3.848 13.534,3.718 13.434,3.618 C13.334,3.518 13.204,3.468 13.044,3.468 C12.876,3.468 12.744,3.522 12.648,3.63 C12.552,3.738 12.504,3.864 12.504,4.008 C12.504,4.2 12.586,4.35 12.75,4.458 C12.914,4.566 13.164,4.684 13.5,4.812 C13.844,4.94 14.138,5.07 14.382,5.202 C14.626,5.334 14.836,5.522 15.012,5.766 C15.188,6.01 15.276,6.316 15.276,6.684 C15.276,7.236 15.074,7.674 14.67,7.998 C14.266,8.322 13.728,8.484 13.056,8.484 Z" id="Path"></path>
                <path d="M18.744,3.276 C18.744,3.316 18.73,3.35 18.702,3.378 C18.674,3.406 18.64,3.42 18.6,3.42 L17.928,3.42 C17.888,3.42 17.868,3.44 17.868,3.48 L17.868,6.336 C17.868,6.568 17.912,6.728 18,6.816 C18.088,6.904 18.22,6.944 18.396,6.936 L18.48,6.936 C18.52,6.936 18.554,6.95 18.582,6.978 C18.61,7.006 18.624,7.04 18.624,7.08 L18.624,8.256 C18.624,8.296 18.61,8.33 18.582,8.358 C18.554,8.386 18.52,8.4 18.48,8.4 L18,8.4 C17.416,8.4 16.976,8.302 16.68,8.106 C16.384,7.91 16.236,7.536 16.236,6.984 L16.236,3.48 C16.236,3.44 16.216,3.42 16.176,3.42 L15.78,3.42 C15.74,3.42 15.706,3.406 15.678,3.378 C15.65,3.35 15.636,3.316 15.636,3.276 L15.636,2.376 C15.636,2.336 15.65,2.302 15.678,2.274 C15.706,2.246 15.74,2.232 15.78,2.232 L16.176,2.232 C16.216,2.232 16.236,2.212 16.236,2.172 L16.236,0.84 C16.236,0.8 16.25,0.766 16.278,0.738 C16.306,0.71 16.34,0.696 16.38,0.696 L17.724,0.696 C17.764,0.696 17.798,0.71 17.826,0.738 C17.854,0.766 17.868,0.8 17.868,0.84 L17.868,2.172 C17.868,2.212 17.888,2.232 17.928,2.232 L18.6,2.232 C18.64,2.232 18.674,2.246 18.702,2.274 C18.73,2.302 18.744,2.336 18.744,2.376 L18.744,3.276 Z" id="Path"></path>
                <path d="M23.88,5.7 C23.88,5.74 23.866,5.774 23.838,5.802 C23.81,5.83 23.776,5.844 23.736,5.844 L21.096,5.844 C21.056,5.844 21.036,5.864 21.036,5.904 L21.036,6.348 C21.036,6.548 21.09,6.714 21.198,6.846 C21.306,6.978 21.444,7.044 21.612,7.044 C21.764,7.044 21.888,6.994 21.984,6.894 C22.08,6.794 22.144,6.668 22.176,6.516 C22.2,6.436 22.252,6.396 22.332,6.396 L23.712,6.468 C23.752,6.468 23.786,6.482 23.814,6.51 C23.842,6.538 23.852,6.576 23.844,6.624 C23.788,7.24 23.574,7.706 23.202,8.022 C22.83,8.338 22.3,8.496 21.612,8.496 C20.9,8.496 20.344,8.318 19.944,7.962 C19.544,7.606 19.344,7.112 19.344,6.48 L19.344,4.152 C19.344,3.544 19.546,3.056 19.95,2.688 C20.354,2.32 20.908,2.136 21.612,2.136 C22.316,2.136 22.87,2.32 23.274,2.688 C23.678,3.056 23.88,3.544 23.88,4.152 L23.88,5.7 Z M21.612,3.588 C21.444,3.588 21.306,3.652 21.198,3.78 C21.09,3.908 21.036,4.072 21.036,4.272 L21.036,4.74 C21.036,4.78 21.056,4.8 21.096,4.8 L22.128,4.8 C22.168,4.8 22.188,4.78 22.188,4.74 L22.188,4.272 C22.188,4.072 22.134,3.908 22.026,3.78 C21.918,3.652 21.78,3.588 21.612,3.588 Z" id="Shape"></path>
                <path d="M27.396,0.144 C27.396,0.104 27.41,0.07 27.438,0.042 C27.466,0.014 27.5,0 27.54,0 L28.944,0 C28.984,0 29.018,0.014 29.046,0.042 C29.074,0.07 29.088,0.104 29.088,0.144 L29.088,8.256 C29.088,8.296 29.074,8.33 29.046,8.358 C29.018,8.386 28.984,8.4 28.944,8.4 L27.54,8.4 C27.5,8.4 27.466,8.386 27.438,8.358 C27.41,8.33 27.396,8.296 27.396,8.256 L27.396,8.064 C27.396,8.04 27.388,8.026 27.372,8.022 C27.356,8.018 27.34,8.024 27.324,8.04 C27.052,8.344 26.692,8.496 26.244,8.496 C25.692,8.496 25.276,8.318 24.996,7.962 C24.716,7.606 24.576,7.112 24.576,6.48 L24.576,4.152 C24.576,3.504 24.718,3.006 25.002,2.658 C25.286,2.31 25.7,2.136 26.244,2.136 C26.42,2.136 26.604,2.17 26.796,2.238 C26.988,2.306 27.164,2.428 27.324,2.604 C27.34,2.62 27.356,2.626 27.372,2.622 C27.388,2.618 27.396,2.604 27.396,2.58 L27.396,0.144 Z M26.832,7.044 C26.976,7.044 27.1,6.996 27.204,6.9 C27.308,6.804 27.372,6.676 27.396,6.516 L27.396,4.116 C27.372,3.956 27.308,3.828 27.204,3.732 C27.1,3.636 26.976,3.588 26.832,3.588 C26.664,3.588 26.528,3.652 26.424,3.78 C26.32,3.908 26.268,4.072 26.268,4.272 L26.268,6.36 C26.268,6.56 26.32,6.724 26.424,6.852 C26.528,6.98 26.664,7.044 26.832,7.044 Z" id="Shape"></path>
                <path d="M37.296,6.084 C37.296,6.828 37.072,7.4 36.624,7.8 C36.176,8.2 35.596,8.4 34.884,8.4 L32.616,8.4 C32.576,8.4 32.542,8.386 32.514,8.358 C32.486,8.33 32.472,8.296 32.472,8.256 L32.472,0.144 C32.472,0.104 32.486,0.07 32.514,0.042 C32.542,0.014 32.576,0 32.616,0 L34.62,0 C35.42,0 36.046,0.192 36.498,0.576 C36.95,0.96 37.176,1.532 37.176,2.292 C37.176,3.084 36.904,3.66 36.36,4.02 C36.328,4.044 36.324,4.068 36.348,4.092 C36.98,4.54 37.296,5.204 37.296,6.084 Z M34.224,1.452 C34.184,1.452 34.164,1.472 34.164,1.512 L34.164,3.396 C34.164,3.436 34.184,3.456 34.224,3.456 L34.656,3.456 C34.928,3.456 35.14,3.37 35.292,3.198 C35.444,3.026 35.52,2.784 35.52,2.472 C35.52,2.144 35.446,1.892 35.298,1.716 C35.15,1.54 34.936,1.452 34.656,1.452 L34.224,1.452 Z M34.752,6.936 C35.016,6.936 35.224,6.84 35.376,6.648 C35.528,6.456 35.604,6.184 35.604,5.832 C35.604,5.48 35.528,5.2 35.376,4.992 C35.224,4.784 35.02,4.68 34.764,4.68 L34.224,4.68 C34.184,4.68 34.164,4.7 34.164,4.74 L34.164,6.876 C34.164,6.916 34.184,6.936 34.224,6.936 L34.752,6.936 Z" id="Shape"></path>
                <path d="M37.956,10.788 C37.94,10.788 37.924,10.774 37.908,10.746 C37.892,10.718 37.884,10.684 37.884,10.644 L37.884,9.54 C37.884,9.444 37.92,9.396 37.992,9.396 C38.408,9.388 38.704,9.322 38.88,9.198 C39.056,9.074 39.156,8.82 39.18,8.436 L39.168,8.364 L37.656,2.376 L37.656,2.328 C37.656,2.256 37.7,2.22 37.788,2.22 L39.3,2.22 C39.396,2.22 39.448,2.264 39.456,2.352 L40.008,5.916 C40.016,5.948 40.028,5.964 40.044,5.964 C40.06,5.964 40.072,5.948 40.08,5.916 L40.608,2.352 C40.616,2.264 40.668,2.22 40.764,2.22 L42.276,2.244 C42.388,2.244 42.432,2.296 42.408,2.4 L40.824,8.628 C40.664,9.212 40.494,9.65 40.314,9.942 C40.134,10.234 39.87,10.448 39.522,10.584 C39.174,10.72 38.672,10.788 38.016,10.788 L37.956,10.788 Z" id="Path"></path>
            </g>
        </g>
    </g>
</svg>