<?xml version="1.0" encoding="UTF-8"?>
<svg width="537px" height="126px" viewBox="0 0 537 126" version="1.1" xmlns="http://www.w3.org/2000/svg" xmlns:xlink="http://www.w3.org/1999/xlink">
    <title>Group</title>
    <g id="Page-1" stroke="none" stroke-width="1" fill="none" fill-rule="evenodd">
        <g id="Group" transform="translate(0.900000, 0.101563)" fill="#F8EB3A" fill-rule="nonzero">
            <g id="Stammtisch" transform="translate(127.941797, -0.000000)">
                <path d="M19.7539062,3.02148438 L19.7539062,0.40625 L24.4257812,0.40625 L24.4257812,12.0097656 L19.7539062,12.0097656 L19.7539062,9.36914062 C17.7734375,6.38997396 15.0651042,4.90039062 11.6289062,4.90039062 C9.52994792,4.90039062 7.921875,5.32356771 6.8046875,6.16992188 C5.6875,7.01627604 5.12890625,8.23502604 5.12890625,9.82617188 C5.12890625,11.3496094 5.6578776,12.5091146 6.71582031,13.3046875 C7.77376302,14.1002604 9.39453125,14.7773438 11.578125,15.3359375 L16.0722656,16.5292969 C18.9329427,17.2910156 21.1292318,18.2981771 22.6611328,19.5507812 C24.1930339,20.8033854 25.1917318,22.1321615 25.6572266,23.5371094 C26.1227214,24.9420573 26.3554688,26.5078125 26.3554688,28.234375 C26.3554688,31.7044271 25.2721354,34.4550781 23.1054688,36.4863281 C20.9388021,38.5175781 18.0358073,39.5332031 14.3964844,39.5332031 C10.9264323,39.5332031 7.76953125,38.2636719 4.92578125,35.7246094 L4.92578125,38.8984375 L0.15234375,38.8984375 L0.15234375,24.9589844 L4.92578125,24.9589844 L4.92578125,28.3359375 C7.2109375,32.5338542 10.1901042,34.6328125 13.8632812,34.6328125 C16.0130208,34.6328125 17.6803385,34.0784505 18.8652344,32.9697266 C20.0501302,31.8610026 20.6425781,30.2994792 20.6425781,28.2851562 C20.6425781,25.5429688 18.7128906,23.6386719 14.8535156,22.5722656 L10.0800781,21.2265625 C6.64388021,20.2447917 4.10481771,18.9160156 2.46289062,17.2402344 C0.820963542,15.5644531 0,13.3554688 0,10.6132812 C0,7.24479167 0.994466146,4.63378906 2.98339844,2.78027344 C4.97233073,0.926757812 7.71875,0 11.2226562,0 C14.2695313,0 17.1132812,1.00716146 19.7539062,3.02148438 Z" id="Path"></path>
                <path d="M41.3867188,12.2128906 L41.3867188,16.9101562 L36.5117188,16.9101562 L36.5117188,30.9003906 C36.5117188,32.3561198 36.6682943,33.2998047 36.9814453,33.7314453 C37.2945964,34.1630859 37.8320312,34.3789062 38.59375,34.3789062 C39.5247396,34.3789062 40.4557292,34.218099 41.3867188,33.8964844 L41.3867188,38.6445312 C39.7617188,39.1184896 38.4498698,39.3554688 37.4511719,39.3554688 C35.250651,39.3554688 33.6679688,38.8011068 32.703125,37.6923828 C31.7382812,36.5836589 31.2558594,34.6835938 31.2558594,31.9921875 L31.2558594,16.9101562 L27.7773438,16.9101562 L27.7773438,12.2128906 L31.2558594,12.2128906 L31.2558594,8.17578125 L36.5117188,3.37695312 L36.5117188,12.2128906 L41.3867188,12.2128906 Z" id="Path"></path>
                <path d="M67.7167969,21.6328125 L67.7167969,34.2265625 L72.1855469,34.2265625 L72.1855469,38.8984375 L63.0957031,38.8984375 L63.0957031,35.6230469 C60.5566406,38.1113281 57.7298177,39.3554688 54.6152344,39.3554688 C52.9733073,39.3554688 51.4710286,38.9746094 50.1083984,38.2128906 C48.7457682,37.4511719 47.6539714,36.4313151 46.8330078,35.1533203 C46.0120443,33.8753255 45.6015625,32.4576823 45.6015625,30.9003906 C45.6015625,29.2246094 46.054362,27.7307943 46.9599609,26.4189453 C47.8655599,25.1070964 49.0885417,24.0957031 50.6289062,23.3847656 C52.1692708,22.6738281 53.718099,22.3183594 55.2753906,22.3183594 C57.8821615,22.3183594 60.3111979,23.0800781 62.5625,24.6035156 L62.5625,21.734375 C62.5625,19.6523438 62.1223958,18.1627604 61.2421875,17.265625 C60.3619792,16.3684896 58.9147135,15.9199219 56.9003906,15.9199219 C55.4785156,15.9199219 54.289388,16.1780599 53.3330078,16.6943359 C52.3766276,17.210612 51.5852865,17.9934896 50.9589844,19.0429688 L45.9316406,17.7988281 C47.0657552,15.6829427 48.5976562,14.1044922 50.5273438,13.0634766 C52.4570312,12.0224609 54.750651,11.5019531 57.4082031,11.5019531 C60.9798177,11.5019531 63.5908203,12.3144531 65.2412109,13.9394531 C66.8916016,15.5644531 67.7167969,18.1289062 67.7167969,21.6328125 Z M55.3261719,35.3183594 C57.8990885,35.3183594 60.3111979,34.2434896 62.5625,32.09375 L62.5625,28.9707031 C60.2773438,27.1933594 57.9921875,26.3046875 55.7070312,26.3046875 C54.3190104,26.3046875 53.1214193,26.7405599 52.1142578,27.6123047 C51.1070964,28.4840495 50.6035156,29.5800781 50.6035156,30.9003906 C50.6035156,32.1699219 51.0436198,33.2236328 51.9238281,34.0615234 C52.8040365,34.8994141 53.938151,35.3183594 55.3261719,35.3183594 Z" id="Shape"></path>
                <path d="M79.1679688,34.2265625 L79.1679688,16.9101562 L74.6738281,16.9101562 L74.6738281,12.2128906 L84.3984375,12.2128906 L84.3984375,15.5898438 C87.5299479,13.1015625 90.6022135,11.8574219 93.6152344,11.8574219 C96.6959635,11.8574219 98.811849,13.2454427 99.9628906,16.0214844 C103.382161,13.2454427 106.606771,11.8574219 109.636719,11.8574219 C111.786458,11.8574219 113.500326,12.4921875 114.77832,13.7617188 C116.056315,15.03125 116.695312,16.9778646 116.695312,19.6015625 L116.695312,34.2265625 L121.367188,34.2265625 L121.367188,38.8984375 L111.490234,38.8984375 L111.490234,21.9882812 C111.490234,20.8203125 111.43099,19.8723958 111.3125,19.1445312 C111.19401,18.4166667 110.885091,17.7988281 110.385742,17.2910156 C109.886393,16.7832031 109.095052,16.5292969 108.011719,16.5292969 C107.046875,16.5292969 105.921224,16.8170573 104.634766,17.3925781 C103.348307,17.968099 101.994141,18.8313802 100.572266,19.9824219 L100.572266,34.2265625 L105.091797,34.2265625 L105.091797,38.8984375 L95.3164062,38.8984375 L95.3164062,21.328125 C95.3164062,19.6184896 95.0582682,18.391276 94.5419922,17.6464844 C94.0257161,16.9016927 93.1751302,16.5292969 91.9902344,16.5292969 C90.0605469,16.5292969 87.5299479,17.6803385 84.3984375,19.9824219 L84.3984375,34.2265625 L89.0957031,34.2265625 L89.0957031,38.8984375 L74.3691406,38.8984375 L74.3691406,34.2265625 L79.1679688,34.2265625 Z" id="Path"></path>
                <path d="M128.146484,34.2265625 L128.146484,16.9101562 L123.652344,16.9101562 L123.652344,12.2128906 L133.376953,12.2128906 L133.376953,15.5898438 C136.508464,13.1015625 139.580729,11.8574219 142.59375,11.8574219 C145.674479,11.8574219 147.790365,13.2454427 148.941406,16.0214844 C152.360677,13.2454427 155.585286,11.8574219 158.615234,11.8574219 C160.764974,11.8574219 162.478841,12.4921875 163.756836,13.7617188 C165.034831,15.03125 165.673828,16.9778646 165.673828,19.6015625 L165.673828,34.2265625 L170.345703,34.2265625 L170.345703,38.8984375 L160.46875,38.8984375 L160.46875,21.9882812 C160.46875,20.8203125 160.409505,19.8723958 160.291016,19.1445312 C160.172526,18.4166667 159.863607,17.7988281 159.364258,17.2910156 C158.864909,16.7832031 158.073568,16.5292969 156.990234,16.5292969 C156.025391,16.5292969 154.89974,16.8170573 153.613281,17.3925781 C152.326823,17.968099 150.972656,18.8313802 149.550781,19.9824219 L149.550781,34.2265625 L154.070312,34.2265625 L154.070312,38.8984375 L144.294922,38.8984375 L144.294922,21.328125 C144.294922,19.6184896 144.036784,18.391276 143.520508,17.6464844 C143.004232,16.9016927 142.153646,16.5292969 140.96875,16.5292969 C139.039062,16.5292969 136.508464,17.6803385 133.376953,19.9824219 L133.376953,34.2265625 L138.074219,34.2265625 L138.074219,38.8984375 L123.347656,38.8984375 L123.347656,34.2265625 L128.146484,34.2265625 Z" id="Path"></path>
                <path d="M186.46875,12.2128906 L186.46875,16.9101562 L181.59375,16.9101562 L181.59375,30.9003906 C181.59375,32.3561198 181.750326,33.2998047 182.063477,33.7314453 C182.376628,34.1630859 182.914062,34.3789062 183.675781,34.3789062 C184.606771,34.3789062 185.53776,34.218099 186.46875,33.8964844 L186.46875,38.6445312 C184.84375,39.1184896 183.531901,39.3554688 182.533203,39.3554688 C180.332682,39.3554688 178.75,38.8011068 177.785156,37.6923828 C176.820312,36.5836589 176.337891,34.6835938 176.337891,31.9921875 L176.337891,16.9101562 L172.859375,16.9101562 L172.859375,12.2128906 L176.337891,12.2128906 L176.337891,8.17578125 L181.59375,3.37695312 L181.59375,12.2128906 L186.46875,12.2128906 Z" id="Path"></path>
                <path d="M199.113281,3.22460938 C199.113281,4.08789062 198.80013,4.83268229 198.173828,5.45898438 C197.547526,6.08528646 196.802734,6.3984375 195.939453,6.3984375 C195.076172,6.3984375 194.339844,6.08528646 193.730469,5.45898438 C193.121094,4.83268229 192.816406,4.08789062 192.816406,3.22460938 C192.816406,2.36132812 193.121094,1.61653646 193.730469,0.990234375 C194.339844,0.363932292 195.076172,0.05078125 195.939453,0.05078125 C196.836589,0.05078125 197.589844,0.35546875 198.199219,0.96484375 C198.808594,1.57421875 199.113281,2.32747396 199.113281,3.22460938 Z M202.871094,34.2265625 L202.871094,38.8984375 L189.388672,38.8984375 L189.388672,34.2265625 L193.552734,34.2265625 L193.552734,16.9101562 L189.388672,16.9101562 L189.388672,12.2128906 L198.808594,12.2128906 L198.808594,34.2265625 L202.871094,34.2265625 Z" id="Shape"></path>
                <path d="M222.167969,13.3554688 L222.167969,12.2128906 L226.738281,12.2128906 L226.738281,21.0742188 L222.167969,21.0742188 L222.167969,19.4492188 C220.644531,17.265625 218.5625,16.1738281 215.921875,16.1738281 C214.533854,16.1738281 213.39974,16.4785156 212.519531,17.0878906 C211.639323,17.6972656 211.199219,18.484375 211.199219,19.4492188 C211.199219,20.3125 211.533529,20.9895833 212.202148,21.4804688 C212.870768,21.9713542 214.373047,22.4029948 216.708984,22.7753906 L220.238281,23.4609375 C225.502604,24.4257812 228.134766,27.0071615 228.134766,31.2050781 C228.134766,33.6595052 227.182617,35.6315104 225.27832,37.1210938 C223.374023,38.6106771 220.847656,39.3554688 217.699219,39.3554688 C216.446615,39.3554688 215.215169,39.1735026 214.004883,38.8095703 C212.794596,38.445638 211.783203,37.9928385 210.970703,37.4511719 L210.970703,38.8984375 L206.298828,38.8984375 L206.298828,29.7578125 L210.970703,29.7578125 L210.970703,30.671875 C211.224609,31.9583333 211.939779,32.9908854 213.116211,33.7695312 C214.292643,34.5481771 215.659505,34.9375 217.216797,34.9375 C218.926432,34.9375 220.272135,34.6370443 221.253906,34.0361328 C222.235677,33.4352214 222.726562,32.5423177 222.726562,31.3574219 C222.726562,30.4941406 222.33724,29.8466797 221.558594,29.4150391 C220.779948,28.9833984 219.214193,28.5390625 216.861328,28.0820312 L214.144531,27.4980469 C211.453125,26.9563802 209.48112,26.0253906 208.228516,24.7050781 C206.975911,23.3847656 206.349609,21.7005208 206.349609,19.6523438 C206.349609,17.9934896 206.810872,16.5758464 207.733398,15.3994141 C208.655924,14.2229818 209.836589,13.3385417 211.275391,12.7460938 C212.714193,12.1536458 214.195312,11.8574219 215.71875,11.8574219 C218.27474,11.8574219 220.424479,12.3567708 222.167969,13.3554688 Z" id="Path"></path>
                <path d="M252.6875,14.1425781 L252.6875,12.2128906 L257.359375,12.2128906 L257.359375,22.3183594 L252.6875,22.3183594 C252.484375,20.3717448 251.705729,18.8863932 250.351562,17.8623047 C248.997396,16.8382161 247.431641,16.3261719 245.654297,16.3261719 C244.130859,16.3261719 242.763997,16.7324219 241.553711,17.5449219 C240.343424,18.3574219 239.408203,19.4576823 238.748047,20.8457031 C238.087891,22.233724 237.757812,23.7486979 237.757812,25.390625 C237.757812,28.1835938 238.502604,30.4645182 239.992188,32.2333984 C241.481771,34.0022786 243.445312,34.8867188 245.882812,34.8867188 C249.657552,34.8867188 252.323568,33.1347656 253.880859,29.6308594 L258.248047,31.7128906 C255.79362,37.0279948 251.595703,39.6855469 245.654297,39.6855469 C242.996745,39.6855469 240.635417,39.0592448 238.570312,37.8066406 C236.505208,36.5540365 234.909831,34.8359375 233.78418,32.6523438 C232.658529,30.46875 232.095703,28.0481771 232.095703,25.390625 C232.095703,22.7838542 232.666992,20.4140625 233.80957,18.28125 C234.952148,16.1484375 236.522135,14.4853516 238.519531,13.2919922 C240.516927,12.0986328 242.742839,11.5019531 245.197266,11.5019531 C248.108724,11.5019531 250.605469,12.3821615 252.6875,14.1425781 Z" id="Path"></path>
                <path d="M279.246094,11.5019531 C284.205729,11.5019531 286.685547,14.1848958 286.685547,19.5507812 L286.685547,34.2265625 L291.205078,34.2265625 L291.205078,38.8984375 L281.429688,38.8984375 L281.429688,21.4296875 C281.429688,19.5169271 281.154622,18.171224 280.604492,17.3925781 C280.054362,16.6139323 279.203776,16.2246094 278.052734,16.2246094 C276.10612,16.2246094 273.575521,17.3671875 270.460938,19.6523438 L270.460938,34.2265625 L275.082031,34.2265625 L275.082031,38.8984375 L260.431641,38.8984375 L260.431641,34.2265625 L265.205078,34.2265625 L265.205078,5.25585938 L260.431641,5.25585938 L260.431641,0.634765625 L270.460938,0.634765625 L270.460938,15.3359375 C273.609375,12.7799479 276.53776,11.5019531 279.246094,11.5019531 Z" id="Path"></path>
            </g>
            <g id="Family-Feud" transform="translate(0.000000, 57.198437)">
                <path d="M0,0 L39.3,0 L39.3,17.5 L21.3,17.5 L21.3,24.9 L39,24.9 L39,41.5 L21.3,41.5 L21.3,66.7 L0,66.7 L0,0 Z M12.6,58.7 L12.6,34.4 L31.6,34.4 L31.6,32 L12.6,32 L12.6,10.4 L32.6,10.4 L32.6,8 L10,8 L10,58.7 L12.6,58.7 Z" id="Shape"></path>
                <path d="M64.6,0 L80.6,0 L105.9,66.7 L84.9,66.7 L82.7,60.7 L62.5,60.7 L60.3,66.7 L39.3,66.7 L64.6,0 Z M77.1,46 L72.6,34.3 L68.1,46 L77.1,46 Z M54.2,58.7 L56.1,53.7 L89.1,53.7 L91,58.7 L93.8,58.7 L74.5,8 L70.7,8 L51.4,58.7 L54.2,58.7 Z M72.6,10.4 L88.2,51.3 L57,51.3 L72.6,10.4 Z" id="Shape"></path>
                <path d="M107.4,0 L125,0 L142.4,25.6 L159.7,0 L177.3,0 L177.3,66.7 L156,66.7 L156,42.7 L142.4,62.7 L128.7,42.7 L128.7,66.7 L107.4,66.7 L107.4,0 Z M120,58.7 L120,12.8 L142.4,45.4 L164.7,12.8 L164.7,58.7 L167.3,58.7 L167.3,8 L164.7,8 L142.4,40.9 L120,8 L117.4,8 L117.4,58.7 L120,58.7 Z" id="Shape"></path>
                <path d="M184.3,0 L206.9,0 L206.9,66.7 L184.3,66.7 L184.3,0 Z M196.9,58.7 L196.9,8 L194.3,8 L194.3,58.7 L196.9,58.7 Z" id="Shape"></path>
                <path d="M213.9,0 L236.1,0 L236.1,49.2 L254.5,49.2 L254.5,66.7 L213.9,66.7 L213.9,0 Z M248.9,58.7 L248.9,56.3 L226.5,56.3 L226.5,8 L223.9,8 L223.9,58.7 L248.9,58.7 Z" id="Shape"></path>
                <path d="M261.7,38 L241,0 L264.7,0 L272.4,14.1 L280,0 L303.7,0 L283,38 L283,66.7 L261.7,66.7 L261.7,38 Z M273.7,58.7 L273.7,34.8 L288.3,8 L285.2,8 L272.4,31.7 L259.5,8 L256.5,8 L271,34.8 L271,58.7 L273.7,58.7 Z" id="Shape"></path>
                <path d="M325.2,0 L364.5,0 L364.5,17.5 L346.5,17.5 L346.5,24.9 L364.2,24.9 L364.2,41.5 L346.5,41.5 L346.5,66.7 L325.2,66.7 L325.2,0 Z M337.8,58.7 L337.8,34.4 L356.8,34.4 L356.8,32 L337.8,32 L337.8,10.4 L357.8,10.4 L357.8,8 L335.2,8 L335.2,58.7 L337.8,58.7 Z" id="Shape"></path>
                <path d="M370,0 L409.3,0 L409.3,17.5 L391.3,17.5 L391.3,24.9 L409,24.9 L409,41.5 L391.3,41.5 L391.3,49.2 L410,49.2 L410,66.7 L370,66.7 L370,0 Z M402.6,58.7 L402.6,56.3 L382.6,56.3 L382.6,34.4 L401.6,34.4 L401.6,32 L382.6,32 L382.6,10.4 L402.6,10.4 L402.6,8 L380,8 L380,58.7 L402.6,58.7 Z" id="Shape"></path>
                <path d="M443.3,68.4 C439.1,68.4 435.3,67.8666667 431.9,66.8 C428.5,65.7333333 425.6,64.1333333 423.2,62 C420.8,59.8666667 418.95,57.1666667 417.65,53.9 C416.35,50.6333333 415.7,46.8 415.7,42.4 L415.7,0 L437,0 L437,41.5 C437,43.8333333 437.483333,45.6166667 438.45,46.85 C439.416667,48.0833333 441.033333,48.7 443.3,48.7 C445.566667,48.7 447.183333,48.0833333 448.15,46.85 C449.116667,45.6166667 449.6,43.8333333 449.6,41.5 L449.6,0 L471,0 L471,42.4 C471,46.8 470.35,50.6333333 469.05,53.9 C467.75,57.1666667 465.883333,59.8666667 463.45,62 C461.016667,64.1333333 458.1,65.7333333 454.7,66.8 C451.3,67.8666667 447.5,68.4 443.3,68.4 Z M443.3,56.4 C433.3,56.4 428.3,51.5 428.3,41.7 L428.3,8 L425.7,8 L425.7,41.7 C425.7,47.3 427.216667,51.5833333 430.25,54.55 C433.283333,57.5166667 437.633333,59 443.3,59 C448.966667,59 453.333333,57.5166667 456.4,54.55 C459.466667,51.5833333 461,47.3 461,41.7 L461,8 L458.3,8 L458.3,41.7 C458.3,51.5 453.3,56.4 443.3,56.4 Z" id="Shape"></path>
                <path d="M477.7,66.7 L477.7,0 L496.2,0 C502.466667,0 508.05,0.7 512.95,2.1 C517.85,3.5 521.983333,5.6 525.35,8.4 C528.716667,11.2 531.283333,14.6833333 533.05,18.85 C534.816667,23.0166667 535.7,27.8333333 535.7,33.3 C535.7,38.7666667 534.816667,43.5833333 533.05,47.75 C531.283333,51.9166667 528.716667,55.4 525.35,58.2 C521.983333,61 517.85,63.1166667 512.95,64.55 C508.05,65.9833333 502.466667,66.7 496.2,66.7 L477.7,66.7 Z M490.3,56.3 L490.3,10.4 L496.2,10.4 C504.666667,10.4 511.25,12.3166667 515.95,16.15 C520.65,19.9833333 523,25.7 523,33.3 C523,40.9 520.65,46.6333333 515.95,50.5 C511.25,54.3666667 504.666667,56.3 496.2,56.3 L490.3,56.3 Z M487.7,58.7 L496.2,58.7 C505.933333,58.7 513.283333,56.4833333 518.25,52.05 C523.216667,47.6166667 525.7,41.3666667 525.7,33.3 C525.7,25.2333333 523.216667,19 518.25,14.6 C513.283333,10.2 505.933333,8 496.2,8 L487.7,8 L487.7,58.7 Z M499,47.7 C504,47.7 507.866667,46.5166667 510.6,44.15 C513.333333,41.7833333 514.7,38.1666667 514.7,33.3 C514.7,28.4333333 513.333333,24.8333333 510.6,22.5 C507.866667,20.1666667 504,19 499,19 L499,47.7 Z" id="Shape"></path>
            </g>
        </g>
    </g>
</svg>