<?xml version="1.0" encoding="UTF-8"?>
<svg width="20px" height="20px" viewBox="0 0 20 20" version="1.1" xmlns="http://www.w3.org/2000/svg" xmlns:xlink="http://www.w3.org/1999/xlink">
    <title>button/minus</title>
    <g id="button/minus" stroke="none" stroke-width="1" fill="none" fill-rule="evenodd">
        <path d="M2.19393939,11 L17.8060606,11 C17.9757576,11 18.1330808,10.9553073 18.2780303,10.8659218 C18.4229798,10.7765363 18.5378788,10.6554935 18.6227273,10.5027933 C18.7075758,10.3500931 18.75,10.1806331 18.75,9.99441341 C18.75,9.81564246 18.7075758,9.64990689 18.6227273,9.4972067 C18.5378788,9.34450652 18.4229798,9.22346369 18.2780303,9.13407821 C18.1330808,9.04469274 17.9757576,9 17.8060606,9 L2.19393939,9 C2.02424242,9 1.86868687,9.04469274 1.72727273,9.13407821 C1.58585859,9.22346369 1.4709596,9.34450652 1.38257576,9.4972067 C1.29419192,9.64990689 1.25,9.81564246 1.25,9.99441341 C1.25,10.1806331 1.29419192,10.3500931 1.38257576,10.5027933 C1.4709596,10.6554935 1.58585859,10.7765363 1.72727273,10.8659218 C1.86868687,10.9553073 2.02424242,11 2.19393939,11 Z" id="Path" fill="#FFFFFF" fill-rule="nonzero"></path>
    </g>
</svg>