<?xml version="1.0" encoding="UTF-8"?>
<svg width="20px" height="20px" viewBox="0 0 20 20" version="1.1" xmlns="http://www.w3.org/2000/svg" xmlns:xlink="http://www.w3.org/1999/xlink">
    <title>button/pause</title>
    <g id="button/pause" stroke="none" stroke-width="1" fill="none" fill-rule="evenodd">
        <path d="M4.92871094,18.7490234 L7.37792969,18.7490234 C7.84342448,18.7490234 8.19791667,18.6272786 8.44140625,18.3837891 C8.68489583,18.1402995 8.80664062,17.7822266 8.80664062,17.3095703 L8.80664062,2.67871094 C8.80664062,2.19173177 8.68489583,1.83186849 8.44140625,1.59912109 C8.19791667,1.3663737 7.84342448,1.25 7.37792969,1.25 L4.92871094,1.25 C4.45605469,1.25 4.09977214,1.37174479 3.85986328,1.61523438 C3.61995443,1.85872396 3.5,2.21321615 3.5,2.67871094 L3.5,17.3095703 C3.5,17.7822266 3.61995443,18.1402995 3.85986328,18.3837891 C4.09977214,18.6272786 4.45605469,18.7490234 4.92871094,18.7490234 Z M12.7382812,18.7490234 L15.1767578,18.7490234 C15.6494141,18.7490234 16.0056966,18.6272786 16.2456055,18.3837891 C16.4855143,18.1402995 16.6054688,17.7822266 16.6054688,17.3095703 L16.6054688,2.67871094 C16.6054688,2.19173177 16.4855143,1.83186849 16.2456055,1.59912109 C16.0056966,1.3663737 15.6494141,1.25 15.1767578,1.25 L12.7382812,1.25 C12.265625,1.25 11.9075521,1.37174479 11.6640625,1.61523438 C11.4205729,1.85872396 11.2988281,2.21321615 11.2988281,2.67871094 L11.2988281,17.3095703 C11.2988281,17.7822266 11.4205729,18.1402995 11.6640625,18.3837891 C11.9075521,18.6272786 12.265625,18.7490234 12.7382812,18.7490234 Z" id="Shape" fill="#FFFFFF" fill-rule="nonzero"></path>
    </g>
</svg>