<?xml version="1.0" encoding="UTF-8"?>
<svg width="20px" height="20px" viewBox="0 0 20 20" version="1.1" xmlns="http://www.w3.org/2000/svg" xmlns:xlink="http://www.w3.org/1999/xlink">
    <title>button/play</title>
    <g id="button/play" stroke="none" stroke-width="1" fill="none" fill-rule="evenodd">
        <path d="M3.52685547,19.3535156 C3.74169922,19.3535156 3.94580078,19.315918 4.13916016,19.2407227 C4.33251953,19.1655273 4.53662109,19.0634766 4.75146484,18.9345703 L17.2768555,11.6943359 C17.7280273,11.429362 18.0413411,11.1948242 18.2167969,10.9907227 C18.3922526,10.7866211 18.4799805,10.5413411 18.4799805,10.2548828 C18.4799805,9.96842448 18.3922526,9.72314453 18.2167969,9.51904297 C18.0413411,9.31494141 17.7280273,9.08398438 17.2768555,8.82617188 L4.75146484,1.57519531 C4.53662109,1.45345052 4.33251953,1.35498047 4.13916016,1.27978516 C3.94580078,1.20458984 3.74169922,1.16699219 3.52685547,1.16699219 C3.13297526,1.16699219 2.81966146,1.30664062 2.58691406,1.5859375 C2.35416667,1.86523438 2.23779297,2.23763021 2.23779297,2.703125 L2.23779297,17.8066406 C2.23779297,18.2721354 2.35416667,18.6463216 2.58691406,18.9291992 C2.81966146,19.2120768 3.13297526,19.3535156 3.52685547,19.3535156 Z" id="Path" fill="#FFFFFF" fill-rule="nonzero"></path>
    </g>
</svg>