<?xml version="1.0" encoding="UTF-8"?>
<svg width="20px" height="20px" viewBox="0 0 20 20" version="1.1" xmlns="http://www.w3.org/2000/svg" xmlns:xlink="http://www.w3.org/1999/xlink">
    <title>button/plus</title>
    <g id="button/plus" stroke="none" stroke-width="1" fill="none" fill-rule="evenodd">
        <path d="M10,18.75 C10.1767677,18.75 10.3358586,18.7084323 10.4772727,18.6252969 C10.6186869,18.5421615 10.7335859,18.4330463 10.8219697,18.2979513 C10.9103535,18.1628563 10.9545455,18.0121734 10.9545455,17.8459026 L10.9545455,10.9352732 L17.8060606,10.9352732 C17.9757576,10.9352732 18.1330808,10.8937055 18.2780303,10.8105701 C18.4229798,10.7274347 18.5378788,10.6148555 18.6227273,10.4728325 C18.7075758,10.3308096 18.75,10.1731987 18.75,10 C18.75,9.83372922 18.7075758,9.67958234 18.6227273,9.53755938 C18.5378788,9.39553642 18.4229798,9.28295724 18.2780303,9.19982185 C18.1330808,9.11668646 17.9757576,9.07511876 17.8060606,9.07511876 L10.9545455,9.07511876 L10.9545455,2.15409739 C10.9545455,1.9878266 10.9103535,1.83541172 10.8219697,1.69685273 C10.7335859,1.55829375 10.6186869,1.44917854 10.4772727,1.36950713 C10.3358586,1.28983571 10.1767677,1.25 10,1.25 C9.83030303,1.25 9.6729798,1.28983571 9.5280303,1.36950713 C9.38308081,1.44917854 9.26818182,1.55829375 9.18333333,1.69685273 C9.09848485,1.83541172 9.05606061,1.9878266 9.05606061,2.15409739 L9.05606061,9.07511876 L2.19393939,9.07511876 C2.02424242,9.07511876 1.86868687,9.11668646 1.72727273,9.19982185 C1.58585859,9.28295724 1.4709596,9.39553642 1.38257576,9.53755938 C1.29419192,9.67958234 1.25,9.83372922 1.25,10 C1.25,10.1731987 1.29419192,10.3308096 1.38257576,10.4728325 C1.4709596,10.6148555 1.58585859,10.7274347 1.72727273,10.8105701 C1.86868687,10.8937055 2.02424242,10.9352732 2.19393939,10.9352732 L9.05606061,10.9352732 L9.05606061,17.8459026 C9.05606061,18.0121734 9.09848485,18.1628563 9.18333333,18.2979513 C9.26818182,18.4330463 9.38308081,18.5421615 9.5280303,18.6252969 C9.6729798,18.7084323 9.83030303,18.75 10,18.75 Z" id="Path" fill="#FFFFFF" fill-rule="nonzero"></path>
    </g>
</svg>