<?xml version="1.0" encoding="UTF-8"?>
<svg width="20px" height="20px" viewBox="0 0 20 20" version="1.1" xmlns="http://www.w3.org/2000/svg" xmlns:xlink="http://www.w3.org/1999/xlink">
    <title>button/stop</title>
    <g id="button/stop" stroke="none" stroke-width="1" fill="none" fill-rule="evenodd">
        <path d="M1.5,16.195092 C1.5,16.9182004 1.7069777,17.4831288 2.12093309,17.8898773 C2.53488848,18.2966258 3.10712093,18.5 3.83763045,18.5 L16.1623696,18.5 C16.8998363,18.5 17.4738081,18.2966258 17.8842848,17.8898773 C18.2947616,17.4831288 18.5,16.9182004 18.5,16.195092 L18.5,3.80490798 C18.5,3.07484663 18.2947616,2.50817996 17.8842848,2.10490798 C17.4738081,1.70163599 16.8998363,1.5 16.1623696,1.5 L3.83763045,1.5 C3.10712093,1.5 2.53488848,1.70163599 2.12093309,2.10490798 C1.7069777,2.50817996 1.5,3.07484663 1.5,3.80490798 L1.5,16.195092 Z" id="Path" fill="#FFFFFF" fill-rule="nonzero"></path>
    </g>
</svg>